<svg preserveAspectRatio="xMidYMid meet" width="100%" height="100%" overflow="visible" style="display: block;" viewBox="0 0 12.0333 14.9917" fill="none" xmlns="http://www.w3.org/2000/svg">
<g id="Vector">
<path d="M5.99167 13.1833C4.61667 13.1833 3.35833 13.0167 2.3 12.725C1.325 12.4667 0.541667 12.0917 0 11.6583V12.725C0 13.9583 2.75 14.9917 6.00833 14.9917C9.26667 14.9917 12.0167 13.9583 12.0167 12.725V11.6583C11.4833 12.0917 10.675 12.4583 9.68333 12.725C8.64167 13.0167 7.36667 13.1833 5.99167 13.1833Z" fill="white"/>
<path d="M6.00833 9.95C4.63333 9.95 3.35833 9.79167 2.31667 9.51667C1.34167 9.26667 0.55 8.925 0.0166667 8.51667V9.51667C0.0166667 10.6833 2.76667 11.6583 6.025 11.6583C9.28333 11.6583 12.0333 10.6833 12.0333 9.51667V8.51667C11.4833 8.925 10.675 9.275 9.7 9.51667C8.64167 9.79167 7.38333 9.95 6.00833 9.95Z" fill="white"/>
<path d="M9.7 6.05833C8.64167 6.35 7.38333 6.51667 6.00833 6.51667C4.63333 6.51667 3.35833 6.35 2.31667 6.05833C1.34167 5.8 0.55 5.425 0.0166667 4.99167V6.05833C0.0166667 7.29167 2.76667 8.325 6.025 8.325C9.28333 8.325 12.0333 7.29167 12.0333 6.05833V4.99167C11.4833 5.425 10.675 5.79167 9.7 6.05833Z" fill="white"/>
<path d="M6.00833 5C9.32664 5 12.0167 3.88071 12.0167 2.5C12.0167 1.11929 9.32664 0 6.00833 0C2.69002 0 0 1.11929 0 2.5C0 3.88071 2.69002 5 6.00833 5Z" fill="white"/>
</g>
</svg>
