<svg preserveAspectRatio="none" width="100%" height="100%" overflow="visible" style="display: block;" viewBox="0 0 16.6742 16.6652" fill="none" xmlns="http://www.w3.org/2000/svg">
<path id="Vector" d="M16.2288 6.09018L9.87877 0.581846C9.45275 0.206858 8.90465 0 8.3371 0C7.76955 0 7.22146 0.206858 6.79544 0.581846L0.445436 6.09018C0.251662 6.2562 0.112162 6.47655 0.0449816 6.72272C-0.0221991 6.96889 -0.0139698 7.22955 0.0686049 7.47099C0.15118 7.71243 0.3043 7.92354 0.508161 8.07702C0.712021 8.23049 0.957242 8.31926 1.2121 8.33185H1.67044V14.1652C1.67044 14.8282 1.93383 15.4641 2.40267 15.9329C2.87151 16.4018 3.50739 16.6652 4.17044 16.6652H6.67044V11.6652H10.0038V16.6652H12.5038C13.1668 16.6652 13.8027 16.4018 14.2715 15.9329C14.7404 15.4641 15.0038 14.8282 15.0038 14.1652V8.33185H15.4621C15.717 8.31926 15.9622 8.23049 16.166 8.07702C16.3699 7.92354 16.523 7.71243 16.6056 7.47099C16.6882 7.22955 16.6964 6.96889 16.6292 6.72272C16.562 6.47655 16.4225 6.2562 16.2288 6.09018V6.09018Z" fill="var(--fill-0, #278BC1)"/>
</svg>
