<svg preserveAspectRatio="none" width="100%" height="100%" overflow="visible" style="display: block;" viewBox="0 0 15.8352 15.0274" fill="none" xmlns="http://www.w3.org/2000/svg">
<path id="Vector" d="M13.3352 10.0274C13.001 10.0276 12.6703 10.0948 12.3625 10.2251C12.0548 10.3553 11.7763 10.546 11.5435 10.7857L5.00182 7.75235C5.00591 7.67741 5.00591 7.6023 5.00182 7.52735C5.00591 7.45241 5.00591 7.3773 5.00182 7.30235L11.5685 4.26902C11.9785 4.67849 12.5181 4.93279 13.0949 4.98845C13.6717 5.0441 14.2499 4.89765 14.7307 4.57413C15.2115 4.25062 15.5649 3.77013 15.7306 3.21484C15.8963 2.65954 15.864 2.06394 15.6391 1.52986C15.4142 0.995786 15.0108 0.556417 14.4978 0.286886C13.9848 0.0173547 13.3941 -0.0655973 12.8267 0.0522146C12.2594 0.170026 11.7505 0.481284 11.3872 0.932764C11.024 1.38424 10.8288 1.9479 10.8352 2.52735C10.8311 2.6023 10.8311 2.67741 10.8352 2.75235L4.29349 5.78569C3.94684 5.42873 3.50157 5.18333 3.01465 5.0809C2.52773 4.97847 2.02133 5.02367 1.56024 5.2107C1.09916 5.39774 0.704381 5.71812 0.42643 6.13082C0.148478 6.54352 0 7.02978 0 7.52735C0 8.02493 0.148478 8.51118 0.42643 8.92389C0.704381 9.33659 1.09916 9.65696 1.56024 9.844C2.02133 10.031 2.52773 10.0762 3.01465 9.97381C3.50157 9.87138 3.94684 9.62598 4.29349 9.26902L10.8352 12.3024C10.8311 12.3773 10.8311 12.4524 10.8352 12.5274C10.8352 13.0218 10.9818 13.5052 11.2565 13.9163C11.5312 14.3274 11.9216 14.6478 12.3784 14.8371C12.8353 15.0263 13.3379 15.0758 13.8229 14.9793C14.3078 14.8829 14.7533 14.6448 15.1029 14.2951C15.4526 13.9455 15.6907 13.5 15.7871 13.0151C15.8836 12.5301 15.8341 12.0275 15.6449 11.5706C15.4556 11.1138 15.1352 10.7234 14.7241 10.4487C14.313 10.174 13.8296 10.0274 13.3352 10.0274Z" fill="var(--fill-0, white)"/>
</svg>
