<svg preserveAspectRatio="none" width="100%" height="100%" overflow="visible" style="display: block;" viewBox="0 0 16.6667 13.3333" fill="none" xmlns="http://www.w3.org/2000/svg">
<path id="Vector" d="M14.1667 13.3333H2.5C1.83696 13.3333 1.20107 13.0699 0.732233 12.6011C0.263392 12.1323 0 11.4964 0 10.8333V2.5C0 1.83696 0.263392 1.20107 0.732233 0.732233C1.20107 0.263392 1.83696 0 2.5 0H5.975C6.63782 0.000583507 7.27328 0.264358 7.74167 0.733333L8.675 1.66667H14.1667C14.8297 1.66667 15.4656 1.93006 15.9344 2.3989C16.4033 2.86774 16.6667 3.50363 16.6667 4.16667V10.8333C16.6667 11.4964 16.4033 12.1323 15.9344 12.6011C15.4656 13.0699 14.8297 13.3333 14.1667 13.3333Z" fill="var(--fill-0, white)" fill-opacity="0.54"/>
</svg>
