<svg preserveAspectRatio="none" width="100%" height="100%" overflow="visible" style="display: block;" viewBox="0 0 13.5061 9.75308" fill="none" xmlns="http://www.w3.org/2000/svg">
<path id="Vector" d="M4.50307 9.75307C4.40436 9.75364 4.30652 9.73472 4.21514 9.6974C4.12376 9.66007 4.04065 9.60508 3.97057 9.53557L0.220569 5.78557C0.0793408 5.64434 -2.10446e-09 5.4528 0 5.25307C2.10446e-09 5.05334 0.0793408 4.8618 0.220569 4.72057C0.361796 4.57934 0.553342 4.5 0.753069 4.5C0.952795 4.5 1.14434 4.57934 1.28557 4.72057L4.50307 7.94557L12.2206 0.220569C12.3618 0.079341 12.5533 0 12.7531 0C12.9528 0 13.1443 0.079341 13.2856 0.220569C13.4268 0.361797 13.5061 0.553343 13.5061 0.753069C13.5061 0.952795 13.4268 1.14434 13.2856 1.28557L5.03557 9.53557C4.96549 9.60508 4.88238 9.66007 4.791 9.6974C4.69962 9.73472 4.60177 9.75364 4.50307 9.75307Z" fill="var(--fill-0, white)" fill-opacity="0.54"/>
</svg>
