<svg preserveAspectRatio="none" width="100%" height="100%" overflow="visible" style="display: block;" viewBox="0 0 124 54" fill="none" xmlns="http://www.w3.org/2000/svg">
<g id="Levels">
<g id="Battery">
<rect id="Border" opacity="0.35" x="73.5" y="23.5" width="24" height="12" rx="3.8" stroke="var(--stroke-0, white)"/>
<path id="Cap" opacity="0.4" d="M99 27.7811V31.8566C99.8047 31.5114 100.328 30.7085 100.328 29.8189C100.328 28.9293 99.8047 28.1263 99 27.7811" fill="var(--fill-0, white)"/>
<rect id="Capacity" x="75" y="25" width="21" height="9" rx="2.5" fill="var(--fill-0, white)"/>
</g>
<path id="Wifi" fill-rule="evenodd" clip-rule="evenodd" d="M57.2705 26.104C59.7576 26.1041 62.1496 27.0262 63.9522 28.6797C64.0879 28.8074 64.3048 28.8058 64.4385 28.6761L65.736 27.4126C65.8037 27.3469 65.8414 27.2578 65.8409 27.1651C65.8403 27.0724 65.8015 26.9838 65.733 26.9188C61.002 22.5441 53.5383 22.5441 48.8073 26.9188C48.7388 26.9837 48.6999 27.0724 48.6992 27.165C48.6986 27.2577 48.7363 27.3468 48.8039 27.4126L50.1018 28.6761C50.2354 28.8059 50.4525 28.8076 50.5882 28.6797C52.3909 27.0261 54.7832 26.104 57.2705 26.104ZM57.2672 30.3243C58.6245 30.3242 59.9334 30.836 60.9395 31.7601C61.0756 31.8913 61.2899 31.8884 61.4226 31.7537L62.7099 30.4344C62.7777 30.3652 62.8153 30.2713 62.8143 30.1738C62.8133 30.0762 62.7738 29.9831 62.7047 29.9153C59.6408 27.0245 54.8961 27.0245 51.8323 29.9153C51.7631 29.9831 51.7236 30.0762 51.7227 30.1738C51.7218 30.2714 51.7595 30.3653 51.8274 30.4344L53.1144 31.7537C53.247 31.8884 53.4614 31.8913 53.5975 31.7601C54.6029 30.8366 55.9108 30.3249 57.2672 30.3243ZM59.7916 33.1179C59.7935 33.2232 59.7565 33.3248 59.6892 33.3986L57.5125 35.8533C57.4487 35.9255 57.3617 35.9661 57.2709 35.9661C57.1802 35.9661 57.0932 35.9255 57.0294 35.8533L54.8523 33.3986C54.7851 33.3247 54.7481 33.2231 54.7501 33.1178C54.7521 33.0124 54.7929 32.9127 54.8629 32.842C56.253 31.5282 58.2889 31.5282 59.679 32.842C59.7489 32.9127 59.7897 33.0125 59.7916 33.1179Z" fill="var(--fill-0, white)"/>
<path id="Cellular Connection" fill-rule="evenodd" clip-rule="evenodd" d="M41.2 24.6821C41.2 24.049 40.7224 23.5358 40.1333 23.5358H39.0667C38.4776 23.5358 38 24.049 38 24.6821V34.616C38 35.2491 38.4776 35.7622 39.0667 35.7622H40.1333C40.7224 35.7622 41.2 35.2491 41.2 34.616V24.6821ZM33.7659 25.9811H34.8326C35.4217 25.9811 35.8992 26.5066 35.8992 27.1548V34.5885C35.8992 35.2367 35.4217 35.7622 34.8326 35.7622H33.7659C33.1768 35.7622 32.6992 35.2367 32.6992 34.5885V27.1548C32.6992 26.5066 33.1768 25.9811 33.7659 25.9811ZM29.4341 28.6302H28.3674C27.7783 28.6302 27.3008 29.1623 27.3008 29.8188V34.5735C27.3008 35.23 27.7783 35.7622 28.3674 35.7622H29.4341C30.0232 35.7622 30.5008 35.23 30.5008 34.5735V29.8188C30.5008 29.1623 30.0232 28.6302 29.4341 28.6302ZM24.1333 31.0754H23.0667C22.4776 31.0754 22 31.6 22 32.2471V34.5905C22 35.2377 22.4776 35.7622 23.0667 35.7622H24.1333C24.7224 35.7622 25.2 35.2377 25.2 34.5905V32.2471C25.2 31.6 24.7224 31.0754 24.1333 31.0754Z" fill="var(--fill-0, white)"/>
</g>
</svg>
