<svg preserveAspectRatio="none" width="100%" height="100%" overflow="visible" style="display: block;" viewBox="0 0 15.8465 15.8382" fill="none" xmlns="http://www.w3.org/2000/svg">
<path id="Vector" d="M10.0048 5.94221e-06C8.92293 0.00116251 7.86266 0.303179 6.94254 0.872298C6.02242 1.44142 5.2787 2.25521 4.79451 3.22273C4.31032 4.19024 4.10474 5.27334 4.20075 6.35098C4.29676 7.42862 4.69057 8.45832 5.33816 9.32501L0.246499 14.4083C0.168392 14.4858 0.106396 14.578 0.0640891 14.6795C0.0217819 14.7811 0 14.89 0 15C0 15.11 0.0217819 15.2189 0.0640891 15.3205C0.106396 15.422 0.168392 15.5142 0.246499 15.5917C0.323968 15.6698 0.416135 15.7318 0.517685 15.7741C0.619234 15.8164 0.728155 15.8382 0.838165 15.8382C0.948175 15.8382 1.0571 15.8164 1.15865 15.7741C1.2602 15.7318 1.35236 15.6698 1.42983 15.5917L6.51317 10.5C7.25289 11.0548 8.1139 11.4258 9.0252 11.5824C9.9365 11.739 10.872 11.6767 11.7545 11.4007C12.637 11.1247 13.4412 10.6428 14.1009 9.99489C14.7605 9.34694 15.2567 8.55145 15.5485 7.67404C15.8402 6.79663 15.9192 5.86242 15.779 4.94847C15.6387 4.03452 15.2832 3.167 14.7417 2.41746C14.2003 1.66792 13.4884 1.05783 12.6648 0.637515C11.8412 0.217196 10.9295 -0.00131374 10.0048 5.94221e-06V5.94221e-06ZM10.0048 10C9.18074 10 8.37516 9.75563 7.68996 9.2978C7.00475 8.83996 6.4707 8.18921 6.15533 7.42785C5.83997 6.66649 5.75745 5.82872 5.91823 5.02046C6.079 4.21221 6.47583 3.46978 7.05855 2.88706C7.64127 2.30434 8.3837 1.90751 9.19196 1.74673C10.0002 1.58596 10.838 1.66848 11.5993 1.98384C12.3607 2.29921 13.0114 2.83326 13.4693 3.51846C13.9271 4.20367 14.1715 5.00925 14.1715 5.83334C14.1715 6.38051 14.0637 6.92233 13.8543 7.42785C13.6449 7.93338 13.338 8.39271 12.9511 8.77962C12.5642 9.16653 12.1049 9.47344 11.5993 9.68284C11.0938 9.89223 10.552 10 10.0048 10V10Z" fill="var(--fill-0, white)"/>
</svg>
