<svg preserveAspectRatio="none" width="100%" height="100%" overflow="visible" style="display: block;" viewBox="0 0 16.6667 16.6667" fill="none" xmlns="http://www.w3.org/2000/svg">
<path id="Vector" d="M8.33334 0C6.68516 0 5.07399 0.488742 3.70358 1.40442C2.33318 2.3201 1.26507 3.62159 0.634341 5.1443C0.00361069 6.66702 -0.161417 8.34258 0.160126 9.95909C0.48167 11.5756 1.27534 13.0605 2.44078 14.2259C3.60622 15.3913 5.09108 16.185 6.70758 16.5065C8.32409 16.8281 9.99965 16.6631 11.5224 16.0323C13.0451 15.4016 14.3466 14.3335 15.2622 12.9631C16.1779 11.5927 16.6667 9.98151 16.6667 8.33333C16.6667 7.23898 16.4511 6.15535 16.0323 5.1443C15.6135 4.13326 14.9997 3.2146 14.2259 2.44078C13.4521 1.66696 12.5334 1.05313 11.5224 0.634337C10.5113 0.215548 9.42769 0 8.33334 0V0ZM11.6667 9.16667H9.16667V11.6667C9.16667 11.8877 9.07887 12.0996 8.92259 12.2559C8.76631 12.4122 8.55435 12.5 8.33334 12.5C8.11232 12.5 7.90036 12.4122 7.74408 12.2559C7.5878 12.0996 7.5 11.8877 7.5 11.6667V9.16667H5C4.77899 9.16667 4.56703 9.07887 4.41075 8.92259C4.25447 8.76631 4.16667 8.55435 4.16667 8.33333C4.16667 8.11232 4.25447 7.90036 4.41075 7.74408C4.56703 7.5878 4.77899 7.5 5 7.5H7.5V5C7.5 4.77899 7.5878 4.56703 7.74408 4.41074C7.90036 4.25446 8.11232 4.16667 8.33334 4.16667C8.55435 4.16667 8.76631 4.25446 8.92259 4.41074C9.07887 4.56703 9.16667 4.77899 9.16667 5V7.5H11.6667C11.8877 7.5 12.0996 7.5878 12.2559 7.74408C12.4122 7.90036 12.5 8.11232 12.5 8.33333C12.5 8.55435 12.4122 8.76631 12.2559 8.92259C12.0996 9.07887 11.8877 9.16667 11.6667 9.16667Z" fill="var(--fill-0, white)" fill-opacity="0.54"/>
</svg>
