<svg preserveAspectRatio="none" width="100%" height="100%" overflow="visible" style="display: block;" viewBox="0 0 14.9917 15" fill="none" xmlns="http://www.w3.org/2000/svg">
<g id="Vector">
<path d="M9.675 9.54167C9.55 9.46667 9.40833 9.40833 9.25833 9.35C8.94167 9.23333 8.525 9.125 8.11667 9.00833C7.70833 8.9 7.28333 8.79167 6.95833 8.7C6.79167 8.65833 6.65833 8.60833 6.55833 8.575L6.46667 8.53333C6.46667 8.53333 6.44167 8.475 6.425 8.44167C6.39167 8.34167 6.34167 8.20833 6.3 8.04167C6.20833 7.71667 6.1 7.29167 5.99167 6.88333C5.88333 6.475 5.775 6.05833 5.65833 5.74167C5.59167 5.575 5.54167 5.44167 5.46667 5.325C5.43333 5.25833 5.38333 5.20833 5.31667 5.14167C5.25 5.08333 5.14167 5.01667 5 5.01667C4.85833 5.01667 4.74167 5.08333 4.68333 5.14167C4.61667 5.2 4.575 5.25833 4.53333 5.325C4.45833 5.45 4.4 5.59167 4.34167 5.74167C4.225 6.05833 4.11667 6.475 3.99167 6.88333C3.88333 7.29167 3.775 7.71667 3.68333 8.04167C3.64167 8.20833 3.59167 8.34167 3.55833 8.44167L3.51667 8.53333L3.425 8.575C3.325 8.60833 3.19167 8.65833 3.025 8.7C2.7 8.79167 2.28333 8.9 1.86667 9.00833C1.45833 9.11667 1.05 9.225 0.725 9.35C0.558333 9.41667 0.425 9.46667 0.308333 9.54167C0.241667 9.575 0.191667 9.625 0.125 9.69167C0.0666667 9.75833 0 9.86667 0 10.0083C0 10.15 0.0750001 10.2667 0.125 10.325C0.183333 10.3917 0.241667 10.4333 0.308333 10.475C0.433333 10.55 0.575 10.6083 0.725 10.6667C1.04167 10.7833 1.45833 10.8917 1.86667 11.0083C2.275 11.1167 2.7 11.225 3.025 11.3167C3.19167 11.3583 3.325 11.4083 3.425 11.4417C3.45833 11.4583 3.49167 11.4667 3.51667 11.4833C3.525 11.5 3.54167 11.5417 3.55833 11.575C3.59167 11.675 3.64167 11.8083 3.68333 11.975C3.775 12.3 3.88333 12.7167 3.99167 13.1333C4.1 13.5417 4.20833 13.9583 4.34167 14.275C4.40833 14.4417 4.45833 14.575 4.53333 14.6917C4.56667 14.7583 4.61667 14.8083 4.68333 14.875C4.75 14.9333 4.85833 15 5 15C5.14167 15 5.25833 14.925 5.31667 14.875C5.38333 14.8167 5.425 14.7583 5.46667 14.6917C5.54167 14.5667 5.6 14.425 5.65833 14.275C5.775 13.9583 5.88333 13.5417 5.99167 13.1333C6.1 12.725 6.20833 12.3 6.3 11.975C6.34167 11.8083 6.39167 11.675 6.425 11.575L6.46667 11.4833L6.55833 11.4417C6.65833 11.4083 6.79167 11.3583 6.95833 11.3167C7.28333 11.225 7.7 11.1167 8.11667 11.0083C8.525 10.9 8.93333 10.7917 9.25833 10.6667C9.425 10.6 9.55833 10.55 9.675 10.475C9.74167 10.4417 9.79167 10.3917 9.85833 10.325C9.91667 10.2583 9.98333 10.15 9.98333 10.0083C9.98333 9.86667 9.90833 9.75 9.85833 9.69167C9.8 9.625 9.74167 9.58333 9.675 9.54167Z" fill="var(--fill-0, white)" fill-opacity="0.54"/>
<path d="M14.8833 3.46667C14.8333 3.40833 14.7833 3.375 14.7333 3.34167C14.6333 3.275 14.525 3.24167 14.4083 3.19167C14.1667 3.1 13.8667 3.01667 13.5583 2.94167C13.25 2.85833 12.9417 2.78333 12.7083 2.71667C12.5833 2.68333 12.4917 2.65 12.4167 2.625L12.3833 2.60833L12.3667 2.575C12.3417 2.50833 12.3083 2.40833 12.275 2.28333C12.2083 2.05 12.125 1.74167 12.05 1.43333C11.9667 1.125 11.8833 0.825 11.8 0.583333C11.75 0.458333 11.7167 0.358333 11.65 0.258333C11.625 0.208333 11.5833 0.158333 11.525 0.108333C11.4667 0.0583334 11.375 0 11.2417 0C11.1083 0 11.0167 0.0583334 10.9583 0.108333C10.9 0.166667 10.8667 0.208333 10.8333 0.258333C10.7667 0.358333 10.7333 0.466667 10.6833 0.583333C10.5917 0.825 10.5167 1.125 10.4333 1.43333C10.35 1.74167 10.275 2.05 10.2083 2.28333C10.175 2.40833 10.1417 2.50833 10.1167 2.575L10.1 2.60833L10.0667 2.625C10 2.65 9.9 2.68333 9.775 2.71667C9.54167 2.78333 9.23333 2.86667 8.925 2.94167C8.61667 3.025 8.31667 3.10833 8.075 3.19167C7.95 3.24167 7.85 3.275 7.75 3.34167C7.7 3.36667 7.65 3.40833 7.6 3.46667C7.55 3.525 7.49167 3.61667 7.49167 3.75C7.49167 3.88333 7.55833 3.975 7.6 4.03333C7.65 4.09167 7.7 4.125 7.75 4.15833C7.85 4.225 7.95833 4.25833 8.075 4.30833C8.31667 4.4 8.61667 4.48333 8.925 4.55833C9.23333 4.64167 9.54167 4.71667 9.775 4.78333C9.9 4.81667 9.99167 4.85 10.0667 4.875L10.1 4.89167L10.1167 4.925C10.1417 4.99167 10.175 5.09167 10.2083 5.21667C10.275 5.45 10.3583 5.75833 10.4333 6.06667C10.5167 6.375 10.6 6.675 10.6833 6.91667C10.7333 7.04167 10.775 7.14167 10.8333 7.24167C10.8583 7.29167 10.9 7.34167 10.9583 7.39167C11.0167 7.44167 11.1083 7.5 11.2417 7.5C11.375 7.5 11.4667 7.43333 11.525 7.39167C11.5833 7.34167 11.6167 7.29167 11.65 7.24167C11.7167 7.14167 11.75 7.03333 11.8 6.91667C11.8917 6.675 11.9667 6.375 12.05 6.06667C12.1333 5.75833 12.2083 5.45 12.275 5.21667C12.3083 5.09167 12.3417 4.99167 12.3667 4.925L12.3833 4.89167L12.4167 4.875C12.4833 4.85 12.5833 4.81667 12.7083 4.78333C12.9417 4.71667 13.25 4.63333 13.5583 4.55833C13.8667 4.475 14.1667 4.39167 14.4083 4.30833C14.5333 4.25833 14.6333 4.225 14.7333 4.15833C14.7833 4.13333 14.8333 4.09167 14.8833 4.03333C14.9333 3.975 14.9917 3.88333 14.9917 3.75C14.9917 3.61667 14.925 3.525 14.8833 3.46667Z" fill="var(--fill-0, white)" fill-opacity="0.54"/>
</g>
</svg>
