<svg preserveAspectRatio="none" width="100%" height="100%" overflow="visible" style="display: block;" viewBox="0 0 22.6001 22.6001" fill="none" xmlns="http://www.w3.org/2000/svg">
<path id="Vector" d="M21.3446 10.0445H12.5556V1.25556C12.5556 0.922568 12.4234 0.60321 12.1879 0.367746C11.9524 0.132282 11.6331 0 11.3001 0V0C10.9671 0 10.6477 0.132282 10.4123 0.367746C10.1768 0.60321 10.0445 0.922568 10.0445 1.25556V10.0445H1.25556C0.922568 10.0445 0.60321 10.1768 0.367746 10.4123C0.132282 10.6477 0 10.9671 0 11.3001C0 11.6331 0.132282 11.9524 0.367746 12.1879C0.60321 12.4234 0.922568 12.5556 1.25556 12.5556H10.0445V21.3446C10.0445 21.6776 10.1768 21.9969 10.4123 22.2324C10.6477 22.4679 10.9671 22.6001 11.3001 22.6001C11.6331 22.6001 11.9524 22.4679 12.1879 22.2324C12.4234 21.9969 12.5556 21.6776 12.5556 21.3446V12.5556H21.3446C21.6776 12.5556 21.9969 12.4234 22.2324 12.1879C22.4679 11.9524 22.6001 11.6331 22.6001 11.3001C22.6001 10.9671 22.4679 10.6477 22.2324 10.4123C21.9969 10.1768 21.6776 10.0445 21.3446 10.0445Z" fill="var(--fill-0, #278BC1)"/>
</svg>
