<svg preserveAspectRatio="none" width="100%" height="100%" overflow="visible" style="display: block;" viewBox="0 0 8.35205 13.3417" fill="none" xmlns="http://www.w3.org/2000/svg">
<g id="Vector">
<path d="M7.5 13.3417H0.833333C0.375 13.3417 0 12.9667 0 12.5083C0 12.05 0.375 11.675 0.833333 11.675H7.5C7.95833 11.675 8.33333 12.05 8.33333 12.5083C8.33333 12.9667 7.95833 13.3417 7.5 13.3417Z" fill="var(--fill-0, white)"/>
<path d="M8.09163 5.25C7.76663 4.925 7.24163 4.925 6.91663 5.25L5.0083 7.15833V0.833333C5.0083 0.375 4.6333 0 4.17496 0C3.71663 0 3.34163 0.375 3.34163 0.833333V7.15833L1.4333 5.25C1.1083 4.925 0.583297 4.925 0.258297 5.25C-0.0667033 5.575 -0.0667033 6.1 0.258297 6.425L3.59163 9.75833C3.7583 9.925 3.96663 10 4.1833 10C4.39996 10 4.6083 9.91667 4.77496 9.75833L8.1083 6.425C8.4333 6.1 8.4333 5.575 8.1083 5.25H8.09163Z" fill="var(--fill-0, white)"/>
</g>
</svg>
