<svg preserveAspectRatio="none" width="100%" height="100%" overflow="visible" style="display: block;" viewBox="0 0 16.6706 16.4894" fill="none" xmlns="http://www.w3.org/2000/svg">
<path id="Vector" d="M6.85834 14.8167C5.87717 14.6026 4.95704 14.1696 4.16667 13.55C3.99318 13.413 3.77235 13.3505 3.55278 13.3763C3.33321 13.402 3.13287 13.514 2.99584 13.6875C2.85881 13.861 2.79632 14.0818 2.8221 14.3014C2.84789 14.521 2.95985 14.7213 3.13334 14.8583C4.10985 15.6375 5.24905 16.1872 6.46667 16.4667L6.66667 16.4833C6.85931 16.488 7.04762 16.4258 7.19956 16.3073C7.3515 16.1888 7.45767 16.0213 7.50001 15.8333C7.527 15.7243 7.53168 15.611 7.51377 15.5002C7.49587 15.3893 7.45574 15.2832 7.39581 15.1883C7.33588 15.0933 7.25738 15.0114 7.16502 14.9476C7.07266 14.8837 6.96834 14.8392 6.85834 14.8167ZM1.66667 8.35C1.66667 8.12899 1.57888 7.91702 1.4226 7.76074C1.26632 7.60446 1.05435 7.51667 0.833341 7.51667C0.612327 7.51667 0.400365 7.60446 0.244085 7.76074C0.0878048 7.91702 7.49885e-06 8.12899 7.49885e-06 8.35C-0.00168565 9.60333 0.283363 10.8404 0.833341 11.9667C0.902061 12.1069 1.00881 12.225 1.14142 12.3075C1.27403 12.3901 1.42716 12.4336 1.58334 12.4333C1.7075 12.4326 1.82993 12.4041 1.94167 12.35C2.14019 12.2545 2.29283 12.0843 2.36622 11.8767C2.43962 11.669 2.4278 11.4407 2.33334 11.2417C1.89338 10.3413 1.66534 9.35213 1.66667 8.35V8.35ZM1.20834 5.85C1.3216 5.89862 1.44343 5.92412 1.56667 5.925C1.72286 5.92531 1.87598 5.88173 2.00859 5.79922C2.1412 5.7167 2.24795 5.59859 2.31667 5.45833C2.75269 4.56006 3.38492 3.77119 4.16667 3.15C4.25228 3.08123 4.32345 2.99622 4.3761 2.89986C4.42874 2.80349 4.46182 2.69768 4.47344 2.58849C4.48505 2.47929 4.47498 2.36889 4.44378 2.2636C4.41259 2.15832 4.3609 2.06024 4.29167 1.975C4.15298 1.80455 3.95257 1.69578 3.73407 1.67237C3.51557 1.64896 3.29667 1.7128 3.12501 1.85C2.15563 2.62816 1.37262 3.61333 0.833341 4.73333C0.735098 4.93116 0.719411 5.15989 0.789727 5.36928C0.860043 5.57866 1.01061 5.75157 1.20834 5.85V5.85ZM14.3417 11.225C14.2524 11.4222 14.2433 11.6464 14.3164 11.8501C14.3895 12.0539 14.5391 12.2212 14.7333 12.3167C14.8461 12.3679 14.9679 12.3963 15.0917 12.4C15.2487 12.3996 15.4025 12.3547 15.5352 12.2707C15.6679 12.1866 15.7741 12.0668 15.8417 11.925C16.1399 11.3051 16.3583 10.6499 16.4917 9.975H14.7833C14.6789 10.4056 14.531 10.8244 14.3417 11.225ZM12.5 13.5417C11.7153 14.162 10.801 14.5977 9.82501 14.8167C9.60399 14.8399 9.40125 14.9499 9.26138 15.1226C9.12151 15.2953 9.05597 15.5165 9.07917 15.7375C9.10238 15.9585 9.21243 16.1613 9.38512 16.3011C9.55781 16.441 9.77899 16.5065 10 16.4833C10.0608 16.4915 10.1225 16.4915 10.1833 16.4833C11.401 16.2039 12.5402 15.6542 13.5167 14.875C13.6935 14.7402 13.8095 14.5406 13.8392 14.3203C13.8689 14.0999 13.8098 13.8768 13.675 13.7C13.5402 13.5232 13.3407 13.4072 13.1203 13.3775C12.8999 13.3478 12.6768 13.4068 12.5 13.5417ZM6.66667 1.875H6.85834C7.34027 1.7486 7.83526 1.67869 8.33334 1.66667V0C7.70215 0.000980359 7.07312 0.0736687 6.45834 0.216667C6.23733 0.240978 6.03502 0.352091 5.89593 0.525562C5.75684 0.699033 5.69236 0.920653 5.71667 1.14167C5.74099 1.36268 5.8521 1.56498 6.02557 1.70407C6.19904 1.84316 6.42066 1.90764 6.64167 1.88333L6.66667 1.875ZM13.6167 7.43333C13.7578 7.57619 13.9258 7.68962 14.111 7.76704C14.2963 7.84445 14.4951 7.88432 14.6958 7.88432C14.8966 7.88432 15.0954 7.84445 15.2806 7.76704C15.4659 7.68962 15.6339 7.57619 15.775 7.43333L15.975 7.23333C16.2595 6.9462 16.4191 6.55836 16.4191 6.15417C16.4191 5.74998 16.2595 5.36213 15.975 5.075L15.3083 4.41667L16.1417 3.58333C16.4328 3.30095 16.6162 2.92584 16.6603 2.5227C16.7044 2.11955 16.6065 1.71365 16.3833 1.375C16.2423 1.18383 16.062 1.02503 15.8546 0.909234C15.6471 0.793438 15.4174 0.723325 15.1806 0.703597C14.9439 0.683868 14.7056 0.714979 14.4819 0.794844C14.2582 0.874709 14.0541 1.00148 13.8833 1.16667L12.9333 2.04167L12.2667 1.38333C12.1263 1.24072 11.959 1.12747 11.7744 1.05016C11.5899 0.972851 11.3918 0.933038 11.1917 0.933038C10.9916 0.933038 10.7935 0.972851 10.6089 1.05016C10.4244 1.12747 10.257 1.24072 10.1167 1.38333L9.91667 1.58333C9.77381 1.72441 9.66039 1.89244 9.58297 2.07769C9.50555 2.26295 9.46569 2.46172 9.46569 2.6625C9.46569 2.86328 9.50555 3.06205 9.58297 3.2473C9.66039 3.43256 9.77381 3.60059 9.91667 3.74167V3.74167L6.09167 7.55833C6.01143 7.63481 5.94724 7.72654 5.90288 7.82813C5.85852 7.92973 5.83488 8.03915 5.83334 8.15V10.65C5.83334 10.871 5.92114 11.083 6.07742 11.2393C6.2337 11.3955 6.44566 11.4833 6.66667 11.4833H9.16667C9.38529 11.4824 9.59479 11.3956 9.75001 11.2417L13.6167 7.43333ZM8.69167 7.31667L11.0917 4.91667L12.4167 6.24167L11.3333 7.31667H8.69167Z" fill="var(--fill-0, white)"/>
</svg>
