<svg preserveAspectRatio="none" width="100%" height="100%" overflow="visible" style="display: block;" viewBox="0 0 15.0201 13.3334" fill="none" xmlns="http://www.w3.org/2000/svg">
<path id="Vector" d="M8.35341 4.71803e-06C6.6402 -0.00203222 4.99195 0.655561 3.75065 1.83635C2.50934 3.01715 1.77026 4.63049 1.68674 6.34167L1.42841 6.075C1.27149 5.91808 1.05866 5.82993 0.836743 5.82993C0.614825 5.82993 0.401996 5.91808 0.245076 6.075C0.0881566 6.23192 0 6.44475 0 6.66667C0 6.88859 0.0881566 7.10142 0.245076 7.25834L1.91174 8.925C1.98921 9.00311 2.08138 9.06511 2.18293 9.10741C2.28448 9.14972 2.3934 9.1715 2.50341 9.1715C2.61342 9.1715 2.72234 9.14972 2.82389 9.10741C2.92544 9.06511 3.01761 9.00311 3.09508 8.925L4.76174 7.25834C4.83944 7.18064 4.90108 7.0884 4.94313 6.98688C4.98518 6.88536 5.00682 6.77655 5.00682 6.66667C5.00682 6.55679 4.98518 6.44798 4.94313 6.34646C4.90108 6.24494 4.83944 6.1527 4.76174 6.075C4.68404 5.99731 4.5918 5.93567 4.49028 5.89362C4.38877 5.85157 4.27996 5.82993 4.17008 5.82993C4.06019 5.82993 3.95139 5.85157 3.84987 5.89362C3.74835 5.93567 3.65611 5.99731 3.57841 6.075L3.35341 6.3C3.43501 5.16446 3.9017 4.09077 4.6763 3.25644C5.45091 2.42211 6.48705 1.87711 7.61342 1.71155C8.73979 1.54599 9.88893 1.76977 10.8709 2.34591C11.8528 2.92205 12.6087 3.81603 13.0136 4.88006C13.4185 5.94409 13.4482 7.11445 13.0977 8.19763C12.7473 9.28081 12.0376 10.212 11.0861 10.8371C10.1347 11.4623 8.99835 11.744 7.86504 11.6357C6.73173 11.5275 5.6693 11.0357 4.85341 10.2417C4.77937 10.1505 4.6869 10.0761 4.58208 10.0232C4.47725 9.97031 4.36243 9.94017 4.24514 9.93475C4.12785 9.92933 4.01074 9.94875 3.90149 9.99175C3.79223 10.0348 3.69329 10.1004 3.61116 10.1843C3.52903 10.2682 3.46555 10.3685 3.42489 10.4786C3.38424 10.5888 3.36731 10.7063 3.37524 10.8234C3.38316 10.9406 3.41575 11.0547 3.47087 11.1584C3.52599 11.2621 3.60239 11.3529 3.69508 11.425C4.93475 12.6516 6.60949 13.3376 8.35341 13.3333C10.1215 13.3333 11.8172 12.631 13.0675 11.3807C14.3177 10.1305 15.0201 8.43478 15.0201 6.66667C15.0201 4.89856 14.3177 3.20287 13.0675 1.95263C11.8172 0.702384 10.1215 4.71803e-06 8.35341 4.71803e-06V4.71803e-06Z" fill="var(--fill-0, white)"/>
</svg>
