<svg preserveAspectRatio="none" width="100%" height="100%" overflow="visible" style="display: block;" viewBox="0 0 15 15.8417" fill="none" xmlns="http://www.w3.org/2000/svg">
<g id="Vector">
<path d="M14.2667 3.15C13.8 2.73333 13.1583 2.5 12.5 2.5H2.5C1.83333 2.5 1.2 2.73333 0.733333 3.15C0.266667 3.56667 0 4.13333 0 4.725V13.6167C0 14.2083 0.266667 14.775 0.733333 15.1917C1.2 15.6083 1.84167 15.8417 2.5 15.8417H12.5C13.1667 15.8417 13.8 15.6083 14.2667 15.1917C14.7333 14.775 15 14.2083 15 13.6167V4.725C15 4.13333 14.7333 3.56667 14.2667 3.15ZM13.3333 10.075L11.0083 7.74167C10.9333 7.66667 10.8417 7.6 10.7333 7.55833C10.6333 7.51667 10.525 7.49167 10.4167 7.49167C10.3083 7.49167 10.2 7.51667 10.1 7.55833C10 7.6 9.90833 7.66667 9.825 7.74167L6.25 11.325L5.175 10.2417C5.1 10.1667 5.00833 10.1 4.9 10.0583C4.8 10.0167 4.69167 9.99167 4.58333 9.99167C4.475 9.99167 4.36667 10.0167 4.26667 10.0583C4.16667 10.1 4.075 10.1667 3.99167 10.2417L1.66667 12.575V5C1.66667 4.775 1.75833 4.56667 1.90833 4.40833C2.05833 4.25 2.275 4.16667 2.5 4.16667H12.5C12.725 4.16667 12.9333 4.25833 13.0917 4.40833C13.25 4.55833 13.3333 4.775 13.3333 5V10.075Z" fill="var(--fill-0, white)" fill-opacity="0.54"/>
<path d="M4.58333 5.84167C4.33333 5.84167 4.09167 5.91667 3.89167 6.05C3.69167 6.18333 3.525 6.38333 3.43333 6.60833C3.34167 6.83333 3.31667 7.09167 3.35833 7.33333C3.4 7.575 3.525 7.8 3.7 7.975C3.875 8.15 4.1 8.26667 4.34167 8.31667C4.58333 8.36667 4.83333 8.34167 5.06667 8.24167C5.29167 8.15 5.49167 7.98333 5.625 7.78333C5.76667 7.575 5.83333 7.33333 5.83333 7.09167C5.83333 6.75833 5.7 6.44167 5.46667 6.20833C5.23333 5.975 4.91667 5.84167 4.58333 5.84167Z" fill="var(--fill-0, white)" fill-opacity="0.54"/>
<path d="M2.5 1.66667H12.5C12.9583 1.66667 13.3333 1.29167 13.3333 0.833333C13.3333 0.375 12.9583 0 12.5 0H2.5C2.04167 0 1.66667 0.375 1.66667 0.833333C1.66667 1.29167 2.04167 1.66667 2.5 1.66667Z" fill="var(--fill-0, white)" fill-opacity="0.54"/>
</g>
</svg>
