<svg preserveAspectRatio="none" width="100%" height="100%" overflow="visible" style="display: block;" viewBox="0 0 23 23" fill="none" xmlns="http://www.w3.org/2000/svg">
<g id="Track">
<path id="Shape" d="M11.5 1.5C12.8132 1.5 14.1136 1.75866 15.3268 2.2612C16.5401 2.76375 17.6425 3.50035 18.5711 4.42893C19.4996 5.35752 20.2362 6.45991 20.7388 7.67317C21.2413 8.88642 21.5 10.1868 21.5 11.5C21.5 12.8132 21.2413 14.1136 20.7388 15.3268C20.2362 16.5401 19.4996 17.6425 18.5711 18.5711C17.6425 19.4997 16.5401 20.2362 15.3268 20.7388C14.1136 21.2413 12.8132 21.5 11.5 21.5C10.1868 21.5 8.88642 21.2413 7.67316 20.7388C6.45991 20.2362 5.35752 19.4997 4.42893 18.5711C3.50034 17.6425 2.76375 16.5401 2.2612 15.3268C1.75866 14.1136 1.5 12.8132 1.5 11.5C1.5 10.1868 1.75866 8.88642 2.2612 7.67316C2.76375 6.45991 3.50035 5.35752 4.42893 4.42893C5.35752 3.50035 6.45991 2.76375 7.67316 2.2612C8.88642 1.75866 10.1868 1.5 11.5 1.5L11.5 1.5Z" stroke="var(--stroke-0, #AFB1B6)" stroke-opacity="0.16" stroke-width="3" stroke-linecap="round"/>
</g>
</svg>
