<svg width="20" height="20" viewBox="0 0 20 20" fill="none" xmlns="http://www.w3.org/2000/svg">
<path d="M12.1833 12.0417C12.0583 11.9667 11.9166 11.9083 11.7666 11.85C11.45 11.7333 11.0333 11.625 10.625 11.5083C10.2166 11.4 9.79163 11.2917 9.46663 11.2C9.29997 11.1583 9.16663 11.1083 9.06663 11.075L8.97497 11.0333C8.97497 11.0333 8.94997 10.975 8.9333 10.9417C8.89997 10.8417 8.84997 10.7083 8.8083 10.5417C8.71663 10.2167 8.6083 9.79167 8.49997 9.38333C8.39163 8.975 8.2833 8.55833 8.16663 8.24167C8.09997 8.075 8.04997 7.94167 7.97497 7.825C7.94163 7.75833 7.89163 7.70833 7.82497 7.64167C7.7583 7.58333 7.64997 7.51667 7.5083 7.51667C7.36663 7.51667 7.24997 7.58333 7.19163 7.64167C7.12497 7.7 7.0833 7.75833 7.04163 7.825C6.96663 7.95 6.9083 8.09167 6.84997 8.24167C6.7333 8.55833 6.62497 8.975 6.49997 9.38333C6.39163 9.79167 6.2833 10.2167 6.19163 10.5417C6.14997 10.7083 6.09997 10.8417 6.06663 10.9417L6.02497 11.0333L5.9333 11.075C5.8333 11.1083 5.69997 11.1583 5.5333 11.2C5.2083 11.2917 4.79163 11.4 4.37497 11.5083C3.96663 11.6167 3.5583 11.725 3.2333 11.85C3.06663 11.9167 2.9333 11.9667 2.81663 12.0417C2.74997 12.075 2.69997 12.125 2.6333 12.1917C2.57497 12.2583 2.5083 12.3667 2.5083 12.5083C2.5083 12.65 2.5833 12.7667 2.6333 12.825C2.69163 12.8917 2.74997 12.9333 2.81663 12.975C2.94163 13.05 3.0833 13.1083 3.2333 13.1667C3.54997 13.2833 3.96663 13.3917 4.37497 13.5083C4.7833 13.6167 5.2083 13.725 5.5333 13.8167C5.69997 13.8583 5.8333 13.9083 5.9333 13.9417C5.96663 13.9583 5.99997 13.9667 6.02497 13.9833C6.0333 14 6.04997 14.0417 6.06663 14.075C6.09997 14.175 6.14997 14.3083 6.19163 14.475C6.2833 14.8 6.39163 15.2167 6.49997 15.6333C6.6083 16.0417 6.71663 16.4583 6.84997 16.775C6.91663 16.9417 6.96663 17.075 7.04163 17.1917C7.07497 17.2583 7.12497 17.3083 7.19163 17.375C7.2583 17.4333 7.36663 17.5 7.5083 17.5C7.64997 17.5 7.76663 17.425 7.82497 17.375C7.89163 17.3167 7.9333 17.2583 7.97497 17.1917C8.04997 17.0667 8.1083 16.925 8.16663 16.775C8.2833 16.4583 8.39163 16.0417 8.49997 15.6333C8.6083 15.225 8.71663 14.8 8.8083 14.475C8.84997 14.3083 8.89997 14.175 8.9333 14.075L8.97497 13.9833L9.06663 13.9417C9.16663 13.9083 9.29997 13.8583 9.46663 13.8167C9.79163 13.725 10.2083 13.6167 10.625 13.5083C11.0333 13.4 11.4416 13.2917 11.7666 13.1667C11.9333 13.1 12.0666 13.05 12.1833 12.975C12.25 12.9417 12.3 12.8917 12.3666 12.825C12.425 12.7583 12.4916 12.65 12.4916 12.5083C12.4916 12.3667 12.4166 12.25 12.3666 12.1917C12.3083 12.125 12.25 12.0833 12.1833 12.0417Z" fill="currentColor"/>
<path d="M17.3916 5.96667C17.3416 5.90833 17.2916 5.875 17.2416 5.84167C17.1416 5.775 17.0333 5.74167 16.9166 5.69167C16.675 5.6 16.375 5.51667 16.0666 5.44167C15.7583 5.35833 15.45 5.28333 15.2166 5.21667C15.0916 5.18333 15 5.15 14.925 5.125L14.8916 5.10833L14.875 5.075C14.85 5.00833 14.8166 4.90833 14.7833 4.78333C14.7166 4.55 14.6333 4.24167 14.5583 3.93333C14.475 3.625 14.3916 3.325 14.3083 3.08333C14.2583 2.95833 14.225 2.85833 14.1583 2.75833C14.1333 2.70833 14.0916 2.65833 14.0333 2.60833C13.975 2.55833 13.8833 2.5 13.75 2.5C13.6166 2.5 13.525 2.55833 13.4666 2.60833C13.4083 2.66667 13.375 2.70833 13.3416 2.75833C13.275 2.85833 13.2416 2.96667 13.1916 3.08333C13.1 3.325 13.025 3.625 12.9416 3.93333C12.8583 4.24167 12.7833 4.55 12.7166 4.78333C12.6833 4.90833 12.65 5.00833 12.625 5.075L12.6083 5.10833L12.575 5.125C12.5083 5.15 12.4083 5.18333 12.2833 5.21667C12.05 5.28333 11.7416 5.36667 11.4333 5.44167C11.125 5.525 10.825 5.60833 10.5833 5.69167C10.4583 5.74167 10.3583 5.775 10.2583 5.84167C10.2083 5.86667 10.1583 5.90833 10.1083 5.96667C10.0583 6.025 9.99997 6.11667 9.99997 6.25C9.99997 6.38333 10.0666 6.475 10.1083 6.53333C10.1583 6.59167 10.2083 6.625 10.2583 6.65833C10.3583 6.725 10.4666 6.75833 10.5833 6.80833C10.825 6.9 11.125 6.98333 11.4333 7.05833C11.7416 7.14167 12.05 7.21667 12.2833 7.28333C12.4083 7.31667 12.5 7.35 12.575 7.375L12.6083 7.39167L12.625 7.425C12.65 7.49167 12.6833 7.59167 12.7166 7.71667C12.7833 7.95 12.8666 8.25833 12.9416 8.56667C13.025 8.875 13.1083 9.175 13.1916 9.41667C13.2416 9.54167 13.2833 9.64167 13.3416 9.74167C13.3666 9.79167 13.4083 9.84167 13.4666 9.89167C13.525 9.94167 13.6166 10 13.75 10C13.8833 10 13.975 9.93333 14.0333 9.89167C14.0916 9.84167 14.125 9.79167 14.1583 9.74167C14.225 9.64167 14.2583 9.53333 14.3083 9.41667C14.4 9.175 14.475 8.875 14.5583 8.56667C14.6416 8.25833 14.7166 7.95 14.7833 7.71667C14.8166 7.59167 14.85 7.49167 14.875 7.425L14.8916 7.39167L14.925 7.375C14.9916 7.35 15.0916 7.31667 15.2166 7.28333C15.45 7.21667 15.7583 7.13333 16.0666 7.05833C16.375 6.975 16.675 6.89167 16.9166 6.80833C17.0416 6.75833 17.1416 6.725 17.2416 6.65833C17.2916 6.63333 17.3416 6.59167 17.3916 6.53333C17.4416 6.475 17.5 6.38333 17.5 6.25C17.5 6.11667 17.4333 6.025 17.3916 5.96667Z" fill="currentColor"/>
</svg>
