<svg width="20" height="20" viewBox="0 0 20 20" fill="none" xmlns="http://www.w3.org/2000/svg">
<path d="M9.99984 1.66675C8.35166 1.66675 6.7405 2.15549 5.37009 3.07117C3.99968 3.98685 2.93158 5.28834 2.30084 6.81105C1.67011 8.33377 1.50509 10.0093 1.82663 11.6258C2.14817 13.2423 2.94185 14.7272 4.10728 15.8926C5.27272 17.0581 6.75758 17.8518 8.37409 18.1733C9.9906 18.4948 11.6662 18.3298 13.1889 17.6991C14.7116 17.0683 16.0131 16.0002 16.9288 14.6298C17.8444 13.2594 18.3332 11.6483 18.3332 10.0001C18.3332 8.90573 18.1176 7.8221 17.6988 6.81105C17.28 5.80001 16.6662 4.88135 15.8924 4.10752C15.1186 3.3337 14.1999 2.71987 13.1889 2.30109C12.1778 1.8823 11.0942 1.66675 9.99984 1.66675V1.66675ZM13.3332 10.8334H10.8332V13.3334C10.8332 13.5544 10.7454 13.7664 10.5891 13.9227C10.4328 14.079 10.2209 14.1667 9.99984 14.1667C9.77883 14.1667 9.56687 14.079 9.41059 13.9227C9.25431 13.7664 9.16651 13.5544 9.16651 13.3334V10.8334H6.66651C6.44549 10.8334 6.23353 10.7456 6.07725 10.5893C5.92097 10.4331 5.83317 10.2211 5.83317 10.0001C5.83317 9.77907 5.92097 9.56711 6.07725 9.41083C6.23353 9.25455 6.44549 9.16675 6.66651 9.16675H9.16651V6.66675C9.16651 6.44573 9.25431 6.23377 9.41059 6.07749C9.56687 5.92121 9.77883 5.83341 9.99984 5.83341C10.2209 5.83341 10.4328 5.92121 10.5891 6.07749C10.7454 6.23377 10.8332 6.44573 10.8332 6.66675V9.16675H13.3332C13.5542 9.16675 13.7662 9.25455 13.9224 9.41083C14.0787 9.56711 14.1665 9.77907 14.1665 10.0001C14.1665 10.2211 14.0787 10.4331 13.9224 10.5893C13.7662 10.7456 13.5542 10.8334 13.3332 10.8334Z" fill="currentColor"/>
</svg>
