<svg width="20" height="20" viewBox="0 0 20 20" fill="none" xmlns="http://www.w3.org/2000/svg">
<path d="M15.8332 16.6666H4.1665C3.50346 16.6666 2.86758 16.4032 2.39874 15.9344C1.9299 15.4655 1.6665 14.8296 1.6665 14.1666V5.83325C1.6665 5.17021 1.9299 4.53433 2.39874 4.06549C2.86758 3.59664 3.50346 3.33325 4.1665 3.33325H7.6415C8.30432 3.33384 8.93978 3.59761 9.40817 4.06659L10.3415 4.99992H15.8332C16.4962 4.99992 17.1321 5.26331 17.6009 5.73215C18.0698 6.20099 18.3332 6.83688 18.3332 7.49992V14.1666C18.3332 14.8296 18.0698 15.4655 17.6009 15.9344C17.1321 16.4032 16.4962 16.6666 15.8332 16.6666Z" fill="currentColor"/>
</svg>
