<svg width="20" height="20" viewBox="0 0 20 20" fill="none" xmlns="http://www.w3.org/2000/svg">
<path d="M17.8919 7.75839L11.5419 2.25006C11.1158 1.87507 10.5677 1.66821 10.0002 1.66821C9.43264 1.66821 8.88455 1.87507 8.45852 2.25006L2.10852 7.75839C1.91475 7.92442 1.77525 8.14476 1.70807 8.39093C1.64089 8.6371 1.64912 8.89777 1.73169 9.13921C1.81427 9.38065 1.96739 9.59176 2.17125 9.74523C2.37511 9.8987 2.62033 9.98747 2.87519 10.0001H3.33352V15.8334C3.33352 16.4964 3.59691 17.1323 4.06576 17.6012C4.5346 18.07 5.17048 18.3334 5.83352 18.3334H8.33352V13.3334H11.6669V18.3334H14.1669C14.8299 18.3334 15.4658 18.07 15.9346 17.6012C16.4035 17.1323 16.6669 16.4964 16.6669 15.8334V10.0001H17.1252C17.38 9.98747 17.6253 9.8987 17.8291 9.74523C18.033 9.59176 18.1861 9.38065 18.2687 9.13921C18.3513 8.89777 18.3595 8.6371 18.2923 8.39093C18.2251 8.14476 18.0856 7.92442 17.8919 7.75839V7.75839Z" fill="currentColor"/>
</svg>
