<svg width="20" height="20" viewBox="0 0 20 20" fill="none" xmlns="http://www.w3.org/2000/svg">
<path d="M16.7667 5.6417C16.3 5.22503 15.6583 4.9917 15 4.9917H5C4.33333 4.9917 3.7 5.22503 3.23333 5.6417C2.76667 6.05837 2.5 6.62503 2.5 7.2167V16.1084C2.5 16.7 2.76667 17.2667 3.23333 17.6834C3.7 18.1 4.34167 18.3334 5 18.3334H15C15.6667 18.3334 16.3 18.1 16.7667 17.6834C17.2333 17.2667 17.5 16.7 17.5 16.1084V7.2167C17.5 6.62503 17.2333 6.05837 16.7667 5.6417ZM15.8333 12.5667L13.5083 10.2334C13.4333 10.1584 13.3417 10.0917 13.2333 10.05C13.1333 10.0084 13.025 9.98337 12.9167 9.98337C12.8083 9.98337 12.7 10.0084 12.6 10.05C12.5 10.0917 12.4083 10.1584 12.325 10.2334L8.75 13.8167L7.675 12.7334C7.6 12.6584 7.50833 12.5917 7.4 12.55C7.3 12.5084 7.19167 12.4834 7.08333 12.4834C6.975 12.4834 6.86667 12.5084 6.76667 12.55C6.66667 12.5917 6.575 12.6584 6.49167 12.7334L4.16667 15.0667V7.4917C4.16667 7.2667 4.25833 7.05837 4.40833 6.90003C4.55833 6.7417 4.775 6.65837 5 6.65837H15C15.225 6.65837 15.4333 6.75003 15.5917 6.90003C15.75 7.05003 15.8333 7.2667 15.8333 7.4917V12.5667Z" fill="currentColor"/>
<path d="M7.08333 8.33337C6.83333 8.33337 6.59167 8.40837 6.39167 8.5417C6.19167 8.67503 6.025 8.87503 5.93333 9.10003C5.84167 9.32503 5.81667 9.58337 5.85833 9.82503C5.9 10.0667 6.025 10.2917 6.2 10.4667C6.375 10.6417 6.6 10.7584 6.84167 10.8084C7.08333 10.8584 7.33333 10.8334 7.56667 10.7334C7.79167 10.6417 7.99167 10.475 8.125 10.275C8.26667 10.0667 8.33333 9.82503 8.33333 9.58337C8.33333 9.25003 8.2 8.93337 7.96667 8.70003C7.73333 8.4667 7.41667 8.33337 7.08333 8.33337Z" fill="currentColor"/>
<path d="M5 4.15837H15C15.4583 4.15837 15.8333 3.78337 15.8333 3.32503C15.8333 2.8667 15.4583 2.4917 15 2.4917H5C4.54167 2.4917 4.16667 2.8667 4.16667 3.32503C4.16667 3.78337 4.54167 4.15837 5 4.15837Z" fill="currentColor"/>
</svg>
