<svg preserveAspectRatio="none" width="100%" height="100%" overflow="visible" style="display: block;" viewBox="0 0 152 53" fill="none" xmlns="http://www.w3.org/2000/svg">
<g id="Banaras Ki Shaam">
<path d="M0 0H13.222C14.7363 0 16.0359 0.238761 17.1208 0.716284C18.2283 1.17107 19.0645 1.81913 19.6296 2.66048C20.1946 3.47909 20.4771 4.45687 20.4771 5.59383C20.4771 6.34422 20.3528 7.0264 20.1042 7.64036C19.8556 8.23157 19.4827 8.77731 18.9854 9.27757C18.5108 9.7551 17.8892 10.1644 17.1208 10.5055V10.5737C18.5899 10.9375 19.72 11.6538 20.511 12.7226C21.3021 13.7686 21.6976 15.0306 21.6976 16.5086C21.6976 17.9639 21.3699 19.226 20.7145 20.2947C20.059 21.3407 19.1097 22.1479 17.8666 22.7164C16.6462 23.2849 15.1996 23.5691 13.5271 23.5691H0V0ZM11.6286 18.3164C12.51 18.3164 13.1768 18.1117 13.6288 17.7024C14.0809 17.2704 14.3069 16.6451 14.3069 15.8264C14.3069 15.0306 14.0696 14.428 13.5949 14.0187C13.1429 13.5866 12.4874 13.3706 11.6286 13.3706H7.39076V18.3164H11.6286ZM11.1878 9.34579C11.7077 9.34579 12.1371 9.27757 12.4761 9.14114C12.8152 8.98197 13.0751 8.75457 13.2559 8.45896C13.4367 8.14062 13.5271 7.74268 13.5271 7.26516C13.5271 6.56025 13.3237 6.04862 12.9169 5.73027C12.51 5.41192 11.945 5.25275 11.2217 5.25275H7.39076V9.34579H11.1878Z" fill="url(#paint0_linear_1215_43828)"/>
<path d="M29.2518 24.0125C27.9635 24.0125 26.8673 23.7965 25.9633 23.3645C25.0592 22.9324 24.3698 22.3071 23.8952 21.4885C23.4206 20.6472 23.1833 19.658 23.1833 18.521C23.1833 17.2022 23.4997 16.1221 24.1325 15.2807C24.788 14.4394 25.7373 13.814 26.9803 13.4047C28.246 12.9727 29.8169 12.7567 31.6928 12.7567H34.6423V12.0745C34.6423 11.3923 34.5632 10.8579 34.405 10.4714C34.2468 10.0848 34.0095 9.81194 33.6931 9.65277C33.3766 9.47086 32.9472 9.3799 32.4048 9.3799C31.7267 9.3799 31.2069 9.5277 30.8452 9.82331C30.5062 10.1189 30.3028 10.5282 30.235 11.0512H24.0308C24.2116 9.80057 24.6072 8.76594 25.2174 7.94733C25.8277 7.10598 26.7317 6.48066 27.9296 6.07135C29.1501 5.63931 30.7322 5.42329 32.676 5.42329C34.6423 5.42329 36.2357 5.68479 37.4562 6.20779C38.6993 6.70805 39.6147 7.49255 40.2023 8.56129C40.79 9.63003 41.0838 11.0285 41.0838 12.7567V23.5691H35.117L34.8118 21.6931H34.744C34.3824 22.1479 33.953 22.5459 33.4557 22.887C32.9811 23.228 32.3935 23.5009 31.6928 23.7056C30.9921 23.9102 30.1785 24.0125 29.2518 24.0125ZM32.1335 19.9536C32.6308 19.9536 33.0715 19.8399 33.4557 19.6125C33.84 19.3851 34.1338 19.0554 34.3372 18.6234C34.5406 18.1913 34.6423 17.6683 34.6423 17.0544V15.7241H32.8794C32.2691 15.7241 31.7606 15.8037 31.3538 15.9629C30.9469 16.1221 30.6305 16.3608 30.4045 16.6792C30.1785 16.9748 30.0655 17.3613 30.0655 17.8389C30.0655 18.3164 30.1446 18.7143 30.3028 19.0327C30.4836 19.351 30.7209 19.5898 31.0147 19.749C31.3312 19.8854 31.7041 19.9536 32.1335 19.9536Z" fill="url(#paint1_linear_1215_43828)"/>
<path d="M43.7317 5.8667H50.2409V8.11788H50.3087C50.919 7.18557 51.6762 6.5034 52.5802 6.07135C53.4843 5.63931 54.5353 5.42329 55.7332 5.42329C57.0215 5.42329 58.1063 5.68479 58.9878 6.20779C59.8919 6.70805 60.5699 7.4357 61.022 8.39075C61.474 9.32305 61.7 10.46 61.7 11.8016V23.5691H54.9873V13.5071C54.9873 12.5065 54.8065 11.7675 54.4449 11.29C54.0832 10.8125 53.5295 10.5737 52.7836 10.5737C52.0152 10.5737 51.4275 10.8125 51.0207 11.29C50.6365 11.7675 50.4444 12.5065 50.4444 13.5071V23.5691H43.7317V5.8667Z" fill="url(#paint2_linear_1215_43828)"/>
<path d="M69.6435 24.0125C68.3552 24.0125 67.2591 23.7965 66.355 23.3645C65.4509 22.9324 64.7616 22.3071 64.2869 21.4885C63.8123 20.6472 63.575 19.658 63.575 18.521C63.575 17.2022 63.8914 16.1221 64.5243 15.2807C65.1797 14.4394 66.129 13.814 67.3721 13.4047C68.6378 12.9727 70.2086 12.7567 72.0845 12.7567H75.034V12.0745C75.034 11.3923 74.9549 10.8579 74.7967 10.4714C74.6385 10.0848 74.4012 9.81194 74.0848 9.65277C73.7683 9.47086 73.3389 9.3799 72.7965 9.3799C72.1184 9.3799 71.5986 9.5277 71.237 9.82331C70.8979 10.1189 70.6945 10.5282 70.6267 11.0512H64.4225C64.6034 9.80057 64.9989 8.76594 65.6091 7.94733C66.2194 7.10598 67.1234 6.48066 68.3213 6.07135C69.5418 5.63931 71.1239 5.42329 73.0677 5.42329C75.034 5.42329 76.6275 5.68479 77.848 6.20779C79.091 6.70805 80.0064 7.49255 80.5941 8.56129C81.1817 9.63003 81.4755 11.0285 81.4755 12.7567V23.5691H75.5087L75.2036 21.6931H75.1357C74.7741 22.1479 74.3447 22.5459 73.8475 22.887C73.3728 23.228 72.7852 23.5009 72.0845 23.7056C71.3839 23.9102 70.5702 24.0125 69.6435 24.0125ZM72.5253 19.9536C73.0225 19.9536 73.4632 19.8399 73.8475 19.6125C74.2317 19.3851 74.5255 19.0554 74.7289 18.6234C74.9323 18.1913 75.034 17.6683 75.034 17.0544V15.7241H73.2711C72.6609 15.7241 72.1523 15.8037 71.7455 15.9629C71.3387 16.1221 71.0222 16.3608 70.7962 16.6792C70.5702 16.9748 70.4572 17.3613 70.4572 17.8389C70.4572 18.3164 70.5363 18.7143 70.6945 19.0327C70.8753 19.351 71.1126 19.5898 71.4065 19.749C71.7229 19.8854 72.0958 19.9536 72.5253 19.9536Z" fill="url(#paint3_linear_1215_43828)"/>
<path d="M84.1573 5.8667H90.5988V8.66362H90.6666C91.0734 7.5494 91.6949 6.73079 92.5312 6.20779C93.3675 5.68479 94.328 5.42329 95.4129 5.42329C96.1362 5.42329 96.7012 5.50287 97.108 5.66205V11.4605C96.882 11.3696 96.6334 11.3014 96.3622 11.2559C96.091 11.2104 95.7293 11.1877 95.2773 11.1877C94.2602 11.1877 93.424 11.3923 92.7685 11.8016C92.1131 12.1882 91.6271 12.768 91.3107 13.5412C90.9943 14.3143 90.8361 15.2921 90.8361 16.4745V23.5691H84.1573V5.8667Z" fill="url(#paint4_linear_1215_43828)"/>
<path d="M103.645 24.0125C102.357 24.0125 101.261 23.7965 100.357 23.3645C99.4528 22.9324 98.7635 22.3071 98.2888 21.4885C97.8142 20.6472 97.5769 19.658 97.5769 18.521C97.5769 17.2022 97.8933 16.1221 98.5261 15.2807C99.1816 14.4394 100.131 13.814 101.374 13.4047C102.64 12.9727 104.21 12.7567 106.086 12.7567H109.036V12.0745C109.036 11.3923 108.957 10.8579 108.799 10.4714C108.64 10.0848 108.403 9.81194 108.087 9.65277C107.77 9.47086 107.341 9.3799 106.798 9.3799C106.12 9.3799 105.6 9.5277 105.239 9.82331C104.9 10.1189 104.696 10.5282 104.629 11.0512H98.4244C98.6052 9.80057 99.0008 8.76594 99.611 7.94733C100.221 7.10598 101.125 6.48066 102.323 6.07135C103.544 5.63931 105.126 5.42329 107.07 5.42329C109.036 5.42329 110.629 5.68479 111.85 6.20779C113.093 6.70805 114.008 7.49255 114.596 8.56129C115.184 9.63003 115.477 11.0285 115.477 12.7567V23.5691H109.511L109.205 21.6931H109.138C108.776 22.1479 108.347 22.5459 107.849 22.887C107.375 23.228 106.787 23.5009 106.086 23.7056C105.386 23.9102 104.572 24.0125 103.645 24.0125ZM106.527 19.9536C107.024 19.9536 107.465 19.8399 107.849 19.6125C108.234 19.3851 108.527 19.0554 108.731 18.6234C108.934 18.1913 109.036 17.6683 109.036 17.0544V15.7241H107.273C106.663 15.7241 106.154 15.8037 105.747 15.9629C105.341 16.1221 105.024 16.3608 104.798 16.6792C104.572 16.9748 104.459 17.3613 104.459 17.8389C104.459 18.3164 104.538 18.7143 104.696 19.0327C104.877 19.351 105.115 19.5898 105.408 19.749C105.725 19.8854 106.098 19.9536 106.527 19.9536Z" fill="url(#paint5_linear_1215_43828)"/>
<path d="M125.957 24.0125C123.312 24.0125 121.222 23.535 119.685 22.58C118.148 21.6249 117.345 20.1241 117.278 18.0776H123.719C123.764 18.6916 123.968 19.1577 124.329 19.4761C124.714 19.7717 125.279 19.9195 126.025 19.9195C126.477 19.9195 126.861 19.874 127.177 19.7831C127.494 19.6694 127.742 19.5102 127.923 19.3055C128.104 19.0781 128.194 18.8053 128.194 18.4869C128.194 18.1686 128.104 17.9185 127.923 17.7365C127.742 17.5319 127.46 17.3613 127.076 17.2249C126.714 17.0885 126.273 16.9748 125.753 16.8838L125.414 16.7815L123.041 16.304C121.21 15.8947 119.854 15.2807 118.973 14.4621C118.091 13.6435 117.651 12.5179 117.651 11.0853C117.651 9.7892 118.001 8.72047 118.702 7.87912C119.402 7.03777 120.363 6.42381 121.583 6.03725C122.804 5.62794 124.228 5.42329 125.855 5.42329C128.432 5.42329 130.432 5.87807 131.856 6.78764C133.28 7.6972 134.037 9.03881 134.127 10.8125H128.059C128.013 10.3349 127.81 9.95975 127.448 9.68688C127.109 9.39127 126.601 9.24347 125.923 9.24347C125.516 9.24347 125.177 9.28894 124.906 9.3799C124.635 9.47086 124.42 9.60729 124.262 9.78921C124.126 9.97112 124.058 10.1985 124.058 10.4714C124.058 10.8125 124.194 11.0967 124.465 11.3241C124.759 11.5287 125.267 11.6993 125.991 11.8357L128.228 12.2791C129.697 12.552 130.895 12.9272 131.822 13.4047C132.771 13.8823 133.472 14.4848 133.924 15.2125C134.376 15.9174 134.602 16.7815 134.602 17.8048C134.602 19.2373 134.263 20.4198 133.585 21.3521C132.907 22.2616 131.924 22.9324 130.635 23.3645C129.347 23.7965 127.787 24.0125 125.957 24.0125Z" fill="url(#paint6_linear_1215_43828)"/>
<path d="M0 28.8851H7.39076V37.4123H7.45856L13.4593 28.8851H21.8672L11.1878 42.0511L7.39076 44.3364V52.4543H0V28.8851ZM13.9679 52.4543C13.0186 49.9984 12.2275 48.1793 11.5947 46.9969C10.9844 45.8144 10.3855 45.0186 9.79784 44.6093C9.2328 44.1772 8.53214 43.9612 7.69588 43.9612L12.9508 39.3906C14.1035 39.5953 15.0866 40.0387 15.9003 40.7209C16.7366 41.3803 17.6406 42.5968 18.6125 44.3705C19.5844 46.1214 20.8275 48.816 22.3418 52.4543H13.9679Z" fill="url(#paint7_linear_1215_43828)"/>
<path d="M23.5035 34.7518H30.2162V52.4543H23.5035V34.7518ZM26.8598 33.0464C26.114 33.0464 25.4698 32.91 24.9274 32.6371C24.3849 32.3642 23.9781 31.989 23.7069 31.5115C23.4357 31.034 23.3001 30.4769 23.3001 29.8402C23.3001 29.2035 23.4357 28.6464 23.7069 28.1688C23.9781 27.6913 24.3849 27.3161 24.9274 27.0433C25.4924 26.7477 26.1479 26.5998 26.8937 26.5998C27.6396 26.5998 28.2724 26.7477 28.7923 27.0433C29.3347 27.3161 29.7415 27.6913 30.0128 28.1688C30.284 28.6464 30.4196 29.2035 30.4196 29.8402C30.4196 30.4769 30.284 31.034 30.0128 31.5115C29.7415 31.989 29.3347 32.3642 28.7923 32.6371C28.2498 32.91 27.6057 33.0464 26.8598 33.0464Z" fill="url(#paint8_linear_1215_43828)"/>
<path d="M51.1063 53C48.8913 53 46.9927 52.7044 45.4106 52.1132C43.8285 51.4992 42.6193 50.6238 41.7831 49.4868C40.9694 48.3271 40.5626 46.94 40.5626 45.3255H47.9872C47.9872 46.1896 48.2584 46.8377 48.8009 47.2697C49.3659 47.679 50.1909 47.8837 51.2758 47.8837C51.9312 47.8837 52.485 47.8155 52.937 47.679C53.4116 47.5199 53.762 47.2925 53.988 46.9969C54.2366 46.6785 54.3609 46.3033 54.3609 45.8713C54.3609 45.4847 54.2366 45.155 53.988 44.8821C53.762 44.6093 53.4003 44.3705 52.9031 44.1658C52.4285 43.9612 51.7504 43.7224 50.8689 43.4496L47.7838 42.5968C46.3373 42.1648 45.1394 41.6418 44.1901 41.0278C43.2409 40.3911 42.5289 39.6407 42.0543 38.7767C41.5796 37.9126 41.3423 36.9007 41.3423 35.741C41.3423 34.172 41.7491 32.8417 42.5628 31.7503C43.3765 30.636 44.5179 29.7947 45.987 29.2262C47.4787 28.635 49.219 28.3394 51.208 28.3394C53.2421 28.3394 54.9598 28.6236 56.3611 29.1921C57.7851 29.7606 58.8586 30.5678 59.5819 31.6138C60.3051 32.6598 60.712 33.9219 60.8024 35.3999H53.8524C53.8298 34.9679 53.7054 34.604 53.4794 34.3084C53.276 34.0128 52.9709 33.7854 52.5641 33.6262C52.1572 33.4671 51.6487 33.3875 51.0384 33.3875C50.496 33.3875 50.0327 33.4443 49.6484 33.558C49.2642 33.6717 48.9704 33.865 48.767 34.1379C48.5636 34.4107 48.4619 34.7291 48.4619 35.0929C48.4619 35.4795 48.5523 35.7978 48.7331 36.048C48.9139 36.2754 49.2416 36.48 49.7163 36.6619C50.1909 36.8438 50.8802 37.0599 51.7843 37.31L53.5811 37.7534C55.7057 38.3219 57.3556 38.9472 58.5309 39.6294C59.7288 40.3116 60.5651 41.0961 61.0397 41.9829C61.5143 42.8697 61.7517 43.9498 61.7517 45.2232C61.7517 46.8832 61.3222 48.293 60.4634 49.4527C59.6271 50.6124 58.4066 51.4992 56.8019 52.1132C55.2198 52.7044 53.3212 53 51.1063 53Z" fill="url(#paint9_linear_1215_43828)"/>
<path d="M63.4971 28.1006H70.2098V36.7984H70.2776C70.8653 35.957 71.5998 35.3317 72.4813 34.9224C73.3628 34.5131 74.3798 34.3084 75.5325 34.3084C76.8208 34.3084 77.9057 34.5699 78.7872 35.0929C79.6686 35.5932 80.3354 36.3208 80.7874 37.2759C81.2394 38.2082 81.4655 39.3451 81.4655 40.6867V52.4543H74.7528V42.3922C74.7528 41.3917 74.5719 40.6526 74.2103 40.1751C73.8487 39.6976 73.295 39.4588 72.5491 39.4588C71.7806 39.4588 71.193 39.6976 70.7862 40.1751C70.4019 40.6526 70.2098 41.3917 70.2098 42.3922V52.4543H63.4971V28.1006Z" fill="url(#paint10_linear_1215_43828)"/>
<path d="M89.409 52.8977C88.1207 52.8977 87.0245 52.6817 86.1204 52.2496C85.2164 51.8176 84.527 51.1922 84.0524 50.3736C83.5778 49.5323 83.3404 48.5431 83.3404 47.4062C83.3404 46.0873 83.6569 45.0072 84.2897 44.1658C84.9452 43.3245 85.8944 42.6992 87.1375 42.2899C88.4032 41.8578 89.974 41.6418 91.85 41.6418H94.7995V40.9596C94.7995 40.2774 94.7204 39.7431 94.5622 39.3565C94.404 38.9699 94.1666 38.6971 93.8502 38.5379C93.5338 38.356 93.1044 38.265 92.5619 38.265C91.8839 38.265 91.364 38.4128 91.0024 38.7084C90.6634 39.0041 90.46 39.4134 90.3922 39.9364H84.188C84.3688 38.6857 84.7643 37.6511 85.3746 36.8325C85.9848 35.9911 86.8889 35.3658 88.0868 34.9565C89.3073 34.5244 90.8894 34.3084 92.8332 34.3084C94.7995 34.3084 96.3929 34.5699 97.6134 35.0929C98.8565 35.5932 99.7719 36.3777 100.36 37.4464C100.947 38.5152 101.241 39.9136 101.241 41.6418V52.4543H95.2741L94.969 50.5783H94.9012C94.5396 51.0331 94.1101 51.431 93.6129 51.7721C93.1383 52.1132 92.5506 52.386 91.85 52.5907C91.1493 52.7954 90.3357 52.8977 89.409 52.8977ZM92.2907 48.8387C92.7879 48.8387 93.2287 48.725 93.6129 48.4977C93.9971 48.2703 94.291 47.9405 94.4944 47.5085C94.6978 47.0765 94.7995 46.5535 94.7995 45.9395V44.6093H93.0366C92.4263 44.6093 91.9178 44.6888 91.5109 44.848C91.1041 45.0072 90.7877 45.246 90.5617 45.5643C90.3357 45.8599 90.2227 46.2465 90.2227 46.724C90.2227 47.2015 90.3018 47.5995 90.46 47.9178C90.6408 48.2361 90.8781 48.4749 91.1719 48.6341C91.4883 48.7705 91.8613 48.8387 92.2907 48.8387Z" fill="url(#paint11_linear_1215_43828)"/>
<path d="M109.042 52.8977C107.754 52.8977 106.658 52.6817 105.753 52.2496C104.849 51.8176 104.16 51.1922 103.685 50.3736C103.211 49.5323 102.973 48.5431 102.973 47.4062C102.973 46.0873 103.29 45.0072 103.923 44.1658C104.578 43.3245 105.527 42.6992 106.771 42.2899C108.036 41.8578 109.607 41.6418 111.483 41.6418H114.433V40.9596C114.433 40.2774 114.353 39.7431 114.195 39.3565C114.037 38.9699 113.8 38.6971 113.483 38.5379C113.167 38.356 112.737 38.265 112.195 38.265C111.517 38.265 110.997 38.4128 110.635 38.7084C110.296 39.0041 110.093 39.4134 110.025 39.9364H103.821C104.002 38.6857 104.397 37.6511 105.008 36.8325C105.618 35.9911 106.522 35.3658 107.72 34.9565C108.94 34.5244 110.522 34.3084 112.466 34.3084C114.433 34.3084 116.026 34.5699 117.246 35.0929C118.49 35.5932 119.405 36.3777 119.993 37.4464C120.58 38.5152 120.874 39.9136 120.874 41.6418V52.4543H114.907L114.602 50.5783H114.534C114.173 51.0331 113.743 51.431 113.246 51.7721C112.771 52.1132 112.184 52.386 111.483 52.5907C110.782 52.7954 109.969 52.8977 109.042 52.8977ZM111.924 48.8387C112.421 48.8387 112.862 48.725 113.246 48.4977C113.63 48.2703 113.924 47.9405 114.127 47.5085C114.331 47.0765 114.433 46.5535 114.433 45.9395V44.6093H112.67C112.059 44.6093 111.551 44.6888 111.144 44.848C110.737 45.0072 110.421 45.246 110.195 45.5643C109.969 45.8599 109.856 46.2465 109.856 46.724C109.856 47.2015 109.935 47.5995 110.093 47.9178C110.274 48.2361 110.511 48.4749 110.805 48.6341C111.121 48.7705 111.494 48.8387 111.924 48.8387Z" fill="url(#paint12_linear_1215_43828)"/>
<path d="M123.556 34.7518H130.031V37.1053H130.099C130.687 36.173 131.432 35.4795 132.337 35.0247C133.241 34.5472 134.292 34.3084 135.489 34.3084C136.665 34.3084 137.659 34.5472 138.473 35.0247C139.309 35.5022 139.919 36.1958 140.304 37.1053H140.338C141.106 36.1048 141.954 35.3885 142.88 34.9565C143.807 34.5244 144.88 34.3084 146.101 34.3084C147.321 34.3084 148.372 34.5586 149.254 35.0588C150.135 35.5363 150.813 36.2412 151.288 37.1736C151.763 38.0831 152 39.1746 152 40.448V52.4543H145.287V42.1193C145.287 41.187 145.129 40.5162 144.813 40.1069C144.496 39.6749 143.988 39.4588 143.287 39.4588C142.835 39.4588 142.451 39.5612 142.134 39.7658C141.818 39.9477 141.569 40.232 141.389 40.6185C141.23 41.0051 141.151 41.5054 141.151 42.1193V52.4543H134.438V42.1193C134.438 41.2098 134.269 40.5389 133.93 40.1069C133.591 39.6749 133.094 39.4588 132.438 39.4588C131.715 39.4588 131.173 39.6749 130.811 40.1069C130.449 40.5389 130.268 41.2098 130.268 42.1193V52.4543H123.556V34.7518Z" fill="url(#paint13_linear_1215_43828)"/>
</g>
<defs>
<linearGradient id="paint0_linear_1215_43828" x1="42.6324" y1="28.0909" x2="102.7" y2="56.4357" gradientUnits="userSpaceOnUse">
<stop stop-color="#FF0000"/>
<stop offset="1" stop-color="#E89E14"/>
</linearGradient>
<linearGradient id="paint1_linear_1215_43828" x1="42.6324" y1="28.0909" x2="102.7" y2="56.4357" gradientUnits="userSpaceOnUse">
<stop stop-color="#FF0000"/>
<stop offset="1" stop-color="#E89E14"/>
</linearGradient>
<linearGradient id="paint2_linear_1215_43828" x1="42.6324" y1="28.0909" x2="102.7" y2="56.4357" gradientUnits="userSpaceOnUse">
<stop stop-color="#FF0000"/>
<stop offset="1" stop-color="#E89E14"/>
</linearGradient>
<linearGradient id="paint3_linear_1215_43828" x1="42.6324" y1="28.0909" x2="102.7" y2="56.4357" gradientUnits="userSpaceOnUse">
<stop stop-color="#FF0000"/>
<stop offset="1" stop-color="#E89E14"/>
</linearGradient>
<linearGradient id="paint4_linear_1215_43828" x1="42.6324" y1="28.0909" x2="102.7" y2="56.4357" gradientUnits="userSpaceOnUse">
<stop stop-color="#FF0000"/>
<stop offset="1" stop-color="#E89E14"/>
</linearGradient>
<linearGradient id="paint5_linear_1215_43828" x1="42.6324" y1="28.0909" x2="102.7" y2="56.4357" gradientUnits="userSpaceOnUse">
<stop stop-color="#FF0000"/>
<stop offset="1" stop-color="#E89E14"/>
</linearGradient>
<linearGradient id="paint6_linear_1215_43828" x1="42.6324" y1="28.0909" x2="102.7" y2="56.4357" gradientUnits="userSpaceOnUse">
<stop stop-color="#FF0000"/>
<stop offset="1" stop-color="#E89E14"/>
</linearGradient>
<linearGradient id="paint7_linear_1215_43828" x1="42.6324" y1="28.0909" x2="102.7" y2="56.4357" gradientUnits="userSpaceOnUse">
<stop stop-color="#FF0000"/>
<stop offset="1" stop-color="#E89E14"/>
</linearGradient>
<linearGradient id="paint8_linear_1215_43828" x1="42.6324" y1="28.0909" x2="102.7" y2="56.4357" gradientUnits="userSpaceOnUse">
<stop stop-color="#FF0000"/>
<stop offset="1" stop-color="#E89E14"/>
</linearGradient>
<linearGradient id="paint9_linear_1215_43828" x1="42.6324" y1="28.0909" x2="102.7" y2="56.4357" gradientUnits="userSpaceOnUse">
<stop stop-color="#FF0000"/>
<stop offset="1" stop-color="#E89E14"/>
</linearGradient>
<linearGradient id="paint10_linear_1215_43828" x1="42.6324" y1="28.0909" x2="102.7" y2="56.4357" gradientUnits="userSpaceOnUse">
<stop stop-color="#FF0000"/>
<stop offset="1" stop-color="#E89E14"/>
</linearGradient>
<linearGradient id="paint11_linear_1215_43828" x1="42.6324" y1="28.0909" x2="102.7" y2="56.4357" gradientUnits="userSpaceOnUse">
<stop stop-color="#FF0000"/>
<stop offset="1" stop-color="#E89E14"/>
</linearGradient>
<linearGradient id="paint12_linear_1215_43828" x1="42.6324" y1="28.0909" x2="102.7" y2="56.4357" gradientUnits="userSpaceOnUse">
<stop stop-color="#FF0000"/>
<stop offset="1" stop-color="#E89E14"/>
</linearGradient>
<linearGradient id="paint13_linear_1215_43828" x1="42.6324" y1="28.0909" x2="102.7" y2="56.4357" gradientUnits="userSpaceOnUse">
<stop stop-color="#FF0000"/>
<stop offset="1" stop-color="#E89E14"/>
</linearGradient>
</defs>
</svg>
